<svg width="24" height="24" viewBox="0 0 24 24" fill="none" xmlns="http://www.w3.org/2000/svg">
<g clip-path="url(#clip0)">
<path d="M22.95 0H1.05C0.45 0 0 0.45 0 1.05V23.1C0 23.55 0.45 24 1.05 24H23.1C23.7 24 24.15 23.55 24.15 22.95V1.05C24 0.45 23.55 0 22.95 0ZM7.05 20.4H3.6V9H7.2V20.4H7.05ZM5.4 7.5C4.2 7.5 3.3 6.45 3.3 5.4C3.3 4.2 4.2 3.3 5.4 3.3C6.6 3.3 7.5 4.2 7.5 5.4C7.35 6.45 6.45 7.5 5.4 7.5ZM20.4 20.4H16.8V14.85C16.8 13.5 16.8 11.85 15 11.85C13.2 11.85 12.9 13.35 12.9 14.85V20.55H9.3V9H12.75V10.5C13.2 9.6 14.4 8.7 16.05 8.7C19.65 8.7 20.25 11.1 20.25 14.1V20.4H20.4Z" fill="white"/>
</g>
<defs>
<clipPath id="clip0">
<path d="M0 0H24V24H0V0Z" fill="white"/>
</clipPath>
</defs>
</svg>
