<svg width="24" height="24" viewBox="0 0 24 24" fill="none" xmlns="http://www.w3.org/2000/svg">
<g clip-path="url(#clip0)">
<path d="M24 12.072C24.0005 9.77858 23.3438 7.53309 22.1077 5.60137C20.8716 3.66965 19.1078 2.1326 17.0252 1.17221C14.9426 0.211825 12.6284 -0.131668 10.3566 0.182403C8.08487 0.496473 5.95068 1.45495 4.20676 2.94435C2.46285 4.43375 1.18225 6.39169 0.516594 8.58633C-0.14906 10.781 -0.171887 13.1204 0.450816 15.3276C1.07352 17.5348 2.31567 19.5174 4.03019 21.0405C5.74471 22.5637 7.8598 23.5636 10.125 23.922V15.54H7.0785V12.072H10.125V9.42745C10.0594 8.81013 10.1304 8.18593 10.3329 7.59909C10.5355 7.01226 10.8646 6.47717 11.297 6.03173C11.7295 5.58629 12.2546 5.24141 12.8351 5.02155C13.4157 4.80168 14.0375 4.7122 14.6565 4.75945C15.5565 4.77128 16.4545 4.84949 17.343 4.99345V7.94995H15.831C15.5734 7.91627 15.3116 7.94094 15.0649 8.02213C14.8181 8.10332 14.5928 8.23895 14.4056 8.41898C14.2183 8.59902 14.0739 8.81886 13.9832 9.06223C13.8924 9.3056 13.8574 9.56627 13.881 9.82495V12.075H17.2095L16.677 15.543H13.875V23.9295C16.6984 23.4828 19.2695 22.043 21.1257 19.8692C22.9819 17.6954 24.0012 14.9304 24 12.072Z" fill="white"/>
</g>
<defs>
<clipPath id="clip0">
<path d="M0 0H24V24H0V0Z" fill="white"/>
</clipPath>
</defs>
</svg>
