<svg width="24" height="24" viewBox="0 0 24 24" fill="none" xmlns="http://www.w3.org/2000/svg">
<path d="M18.2175 7.27795C19.0128 7.27795 19.6575 6.63324 19.6575 5.83795C19.6575 5.04266 19.0128 4.39795 18.2175 4.39795C17.4222 4.39795 16.7775 5.04266 16.7775 5.83795C16.7775 6.63324 17.4222 7.27795 18.2175 7.27795Z" fill="white"/>
<path d="M12 18C8.691 18 6 15.309 6 12C6 8.691 8.691 6 12 6C15.309 6 18 8.691 18 12C18 15.309 15.309 18 12 18ZM12 9C10.3455 9 9 10.3455 9 12C9 13.6545 10.3455 15 12 15C13.6545 15 15 13.6545 15 12C15 10.3455 13.6545 9 12 9Z" fill="white"/>
<path d="M18 24H6C2.916 24 0 21.084 0 18V6C0 2.916 2.916 0 6 0H18C21.084 0 24 2.916 24 6V18C24 21.084 21.084 24 18 24ZM6 3C4.5975 3 3 4.5975 3 6V18C3 19.4295 4.5705 21 6 21H18C19.4025 21 21 19.4025 21 18V6C21 4.5975 19.4025 3 18 3H6Z" fill="white"/>
</svg>
