<svg width="108" height="40" viewBox="0 0 108 40" fill="none" xmlns="http://www.w3.org/2000/svg">
<path fill-rule="evenodd" clip-rule="evenodd" d="M95.7807 18.242L87.7854 10.3288C87.6395 10.1843 87.5238 10.0128 87.4448 9.82392C87.3658 9.63509 87.3251 9.43271 87.3251 9.22832C87.3251 9.02393 87.3658 8.82154 87.4448 8.63271C87.5238 8.44388 87.6395 8.27231 87.7854 8.1278L95.7816 0.215489C95.8783 0.119474 96.0016 0.0539915 96.1359 0.0273023C96.2702 0.000613191 96.4095 0.0139132 96.5361 0.0655244C96.6628 0.117136 96.7712 0.204746 96.8476 0.317302C96.9241 0.429858 96.9652 0.562317 96.9657 0.697968V17.7524C96.9657 18.366 96.2201 18.6692 95.7807 18.242ZM99.3636 0.00144957C104.195 0.374234 107.993 4.3616 108 9.21851C108 14.0745 104.195 18.0628 99.3636 18.4347C99.269 18.4418 99.1739 18.4295 99.0843 18.3984C98.9948 18.3673 98.9127 18.3181 98.8433 18.254C98.7739 18.1899 98.7187 18.1122 98.6812 18.0258C98.6436 17.9395 98.6246 17.8464 98.6252 17.7524V14.054C98.6252 13.7231 98.8684 13.4262 99.2033 13.378C100.221 13.2424 101.154 12.7463 101.831 11.9816C102.507 11.2169 102.881 10.2353 102.884 9.21851C102.882 8.20157 102.508 7.21977 101.831 6.45486C101.154 5.68996 100.221 5.19376 99.2033 5.05812C98.8684 5.0171 98.6252 4.72012 98.6252 4.38212V0.684591C98.6255 0.590833 98.6452 0.498128 98.6831 0.412188C98.7209 0.326248 98.7761 0.248893 98.8453 0.18489C98.9145 0.120888 98.9961 0.0715933 99.0853 0.0400445C99.1744 0.00849572 99.2692 -0.00463906 99.3636 0.00144957ZM0 35.82C0 34.765 0.829328 33.9026 1.9378 33.9026C2.33491 33.9026 2.69059 34.0194 2.96973 34.1781C4.99128 35.5096 7.08216 36.1723 8.98484 36.1723C11.0415 36.1723 12.2328 35.3099 12.2328 33.9436V33.8678C12.2328 32.2669 10.0168 31.7149 7.56301 30.9774C4.47441 30.115 1.03193 28.8664 1.03193 24.9201V24.8371C1.03193 20.9327 4.31503 18.5453 8.46978 18.5453C10.6849 18.5453 13.0207 19.1731 15.0351 20.229C15.7041 20.5804 16.185 21.2083 16.185 22.0296C16.185 23.1266 15.3142 23.9471 14.2057 23.9471C13.8086 23.9471 13.5718 23.8713 13.2575 23.7125C11.5566 22.8501 9.81417 22.3052 8.35001 22.3052C6.48965 22.3052 5.4235 23.1676 5.4235 24.3404V24.4162C5.4235 25.9412 7.68187 26.569 10.1347 27.3485C13.181 28.2867 16.6244 29.6521 16.6244 33.3639V33.4397C16.6244 37.7793 13.2233 39.9251 8.86598 39.9251C6.0273 39.9016 3.25949 39.0443 0.913072 37.4619C0.397105 37.1854 0 36.5995 0 35.82ZM29.7217 29.2526C29.7217 23.354 34.4689 18.4623 40.882 18.4623C47.2942 18.4623 51.9992 23.2711 51.9992 29.1696V29.2454C51.9992 35.1092 47.2528 39.9938 40.7974 39.9938C34.4266 40.0009 29.7217 35.1921 29.7217 29.3275V29.2526ZM47.2105 29.2526C47.2105 25.6166 44.5622 22.6084 40.7983 22.6084C36.9569 22.6084 34.504 25.5818 34.504 29.1768V29.2526C34.504 32.8466 37.1523 35.8548 40.8748 35.8548C44.7576 35.8548 47.2105 32.8877 47.2105 29.3284V29.2526ZM58.6842 37.3593C58.6825 37.9884 58.4293 38.5913 57.9799 39.0359C57.5305 39.4805 56.9215 39.7306 56.2863 39.7316C55.6528 39.7306 55.0456 39.4811 54.5975 39.0376C54.1494 38.5942 53.897 37.9929 53.8955 37.3655V27.7695C53.8955 22.6504 58.0917 18.5033 63.2703 18.5033C68.4498 18.5033 72.6459 22.6575 72.6459 27.7695V37.3655C72.6464 37.6765 72.5849 37.9846 72.4649 38.2719C72.3449 38.5593 72.1688 38.8204 71.9466 39.0402C71.7245 39.2601 71.4608 39.4343 71.1705 39.5529C70.8803 39.6716 70.5692 39.7323 70.2552 39.7316C69.6217 39.7306 69.0145 39.4811 68.5664 39.0376C68.1183 38.5942 67.8659 37.9929 67.8645 37.3655V27.3003C67.864 26.6606 67.7271 26.0281 67.4625 25.4444C67.1979 24.8608 66.8117 24.3391 66.3293 23.9136C65.8468 23.4882 65.279 23.1686 64.663 22.9758C64.0471 22.7829 63.3969 22.7213 62.7552 22.7948C60.4131 23.0499 58.6842 25.0922 58.6842 27.4172V37.3593ZM27.6236 23.1944H23.9497V32.6112C24.0064 34.2459 25.2256 35.5988 26.9338 35.5988H27.5821C28.1716 35.5988 28.7369 35.8305 29.1539 36.2431C29.5709 36.6556 29.8056 37.2152 29.8063 37.799C29.8058 38.3829 29.5713 38.9427 29.1542 39.3554C28.7372 39.7682 28.1717 40 27.5821 40H26.6484C26.5386 39.9977 26.4291 39.9885 26.3206 39.9724C22.2568 39.703 19.2943 36.6057 19.1754 32.8047H19.1619V15.3926C19.1614 15.0817 19.2229 14.7736 19.3429 14.4862C19.4629 14.1988 19.6391 13.9378 19.8612 13.7179C20.0833 13.4981 20.3471 13.3239 20.6373 13.2052C20.9276 13.0866 21.2386 13.0259 21.5526 13.0266C22.1861 13.0276 22.7934 13.2771 23.2415 13.7205C23.6895 14.164 23.9419 14.7653 23.9434 15.3926V18.8904H27.6236C28.2 18.8904 28.7527 19.1172 29.1603 19.5208C29.5679 19.9245 29.7968 20.472 29.7968 21.0428C29.7968 21.6137 29.5679 22.1612 29.1603 22.5648C28.7527 22.9685 28.2 23.1944 27.6236 23.1944ZM82.5438 28.8655C82.5443 28.3286 82.7594 27.8138 83.1421 27.4336C83.5249 27.0534 84.044 26.8387 84.5861 26.8366H89.7791C89.0965 24.3743 87.3469 22.6075 84.8508 22.6075C81.0806 22.6075 79.0167 25.5809 79.0167 29.1759V29.2517C79.0167 32.8457 81.6236 35.8539 85.284 35.8539C86.9354 35.8539 88.3158 35.301 89.3613 34.3842C90.1906 33.66 91.4242 33.6395 92.2536 34.3636C93.2648 35.2466 93.2162 36.8197 92.1563 37.6545C90.295 39.1171 87.9043 40 85.2065 40C78.9402 40 74.3118 35.1913 74.3118 29.3275V29.2517C74.3118 23.346 78.634 18.4614 84.9346 18.4614C90.4832 18.4614 94.4705 22.967 94.4705 28.8655C94.4705 29.1329 94.4173 29.3977 94.3139 29.6447C94.2105 29.8918 94.059 30.1162 93.868 30.3052C93.677 30.4942 93.4503 30.6441 93.2008 30.7463C92.9512 30.8484 92.6838 30.9009 92.4138 30.9007H84.6005C84.3305 30.9009 84.0631 30.8484 83.8136 30.7463C83.5641 30.6441 83.3373 30.4942 83.1463 30.3052C82.9553 30.1162 82.8038 29.8918 82.7004 29.6447C82.597 29.3977 82.5438 29.1329 82.5438 28.8655Z" fill="#14AA4B"/>
</svg>
